<?xml version="1.0" encoding="UTF-8" standalone="no"?>
<!-- Created with Inkscape (http://www.inkscape.org/) -->

<svg
   width="1920"
   height="645.32202"
   viewBox="0 0 507.99999 170.74145"
   version="1.1"
   id="svg5"
   inkscape:version="1.2.2 (732a01da63, 2022-12-09, custom)"
   sodipodi:docname="nevesht_logo_raw.svg"
   xmlns:inkscape="http://www.inkscape.org/namespaces/inkscape"
   xmlns:sodipodi="http://sodipodi.sourceforge.net/DTD/sodipodi-0.dtd"
   xmlns="http://www.w3.org/2000/svg"
   xmlns:svg="http://www.w3.org/2000/svg">
  <sodipodi:namedview
     id="namedview7"
     pagecolor="#ffffff"
     bordercolor="#000000"
     borderopacity="0.25"
     inkscape:showpageshadow="2"
     inkscape:pageopacity="0.0"
     inkscape:pagecheckerboard="0"
     inkscape:deskcolor="#d1d1d1"
     inkscape:document-units="px"
     showgrid="false"
     inkscape:zoom="0.65416667"
     inkscape:cx="960"
     inkscape:cy="556.43312"
     inkscape:window-width="1920"
     inkscape:window-height="1011"
     inkscape:window-x="0"
     inkscape:window-y="0"
     inkscape:window-maximized="1"
     inkscape:current-layer="layer1" />
  <defs
     id="defs2" />
  <g
     inkscape:label="Layer 1"
     inkscape:groupmode="layer"
     id="layer1">
    <g
       id="g1482"
       transform="matrix(1.1267097,0,0,1.1267097,-55.665471,-75.607918)"
       inkscape:export-filename="../73c2617c/mark.png"
       inkscape:export-xdpi="96"
       inkscape:export-ydpi="96">
      <rect
         style="fill:#f2f2f2;fill-opacity:1;stroke-width:0.657;stroke-miterlimit:6.8;paint-order:markers fill stroke"
         id="rect1026-3"
         width="118.07884"
         height="118.07884"
         x="140.10352"
         y="342.15927"
         ry="18.68943"
         transform="rotate(-45)" />
      <rect
         style="fill:#24a5f5;fill-opacity:1;stroke-width:0.657;stroke-miterlimit:6.8;paint-order:markers fill stroke"
         id="rect1026"
         width="118.07884"
         height="118.07884"
         x="365.46622"
         y="83.835579"
         ry="18.68943" />
      <path
         id="rect1215"
         style="fill:#ffffff;fill-opacity:1;stroke-width:0.657;stroke-miterlimit:6.8;paint-order:markers fill stroke"
         d="m 404.41514,101.08996 c -2.82098,0 -5.09219,2.27119 -5.09219,5.09218 v 11.51042 h -11.51041 c -2.82099,0 -5.0922,2.2712 -5.0922,5.09219 0,2.82099 2.27121,5.09168 5.0922,5.09168 h 11.51041 v 29.99714 h -11.51041 c -2.82099,0 -5.0922,2.27069 -5.0922,5.09167 0,2.82099 2.27121,5.09219 5.0922,5.09219 h 11.51041 v 11.51093 c 0,2.82099 2.27121,5.09168 5.09219,5.09168 2.82099,0 5.0922,-2.27069 5.0922,-5.09168 v -11.51093 h 29.99662 v 11.51093 c 0,2.82099 2.27121,5.09168 5.09219,5.09168 2.82099,0 5.0922,-2.27069 5.0922,-5.09168 v -11.51093 h 11.51041 c 2.82098,0 5.09219,-2.2712 5.09219,-5.09219 0,-2.82098 -2.27121,-5.09167 -5.09219,-5.09167 h -11.51041 v -29.99714 h 11.51041 c 2.82098,0 5.09219,-2.27069 5.09219,-5.09168 0,-2.82099 -2.27121,-5.09219 -5.09219,-5.09219 h -11.51041 v -11.51042 c 0,-2.82099 -2.27121,-5.09218 -5.0922,-5.09218 -2.82098,0 -5.09219,2.27119 -5.09219,5.09218 v 11.51042 h -29.99662 v -11.51042 c 0,-2.82099 -2.27121,-5.09218 -5.0922,-5.09218 z m 5.0922,26.78647 h 29.99662 v 29.99714 h -29.99662 z" />
    </g>
    <g
       aria-label="نوشت"
       id="text1477"
       style="font-weight:bold;font-size:103.775px;font-family:Vazirmatn;-inkscape-font-specification:'Vazirmatn Bold';fill:#333333;stroke-width:5.36853;stroke-miterlimit:6.8;paint-order:markers fill stroke"
       transform="matrix(1.1267097,0,0,1.1267097,-55.665471,-75.607918)">
      <path
         d="m 312.28194,168.63672 c 5.43873,0 9.7289,-0.97965 12.87053,-2.93894 3.14163,-1.99307 5.38806,-4.74622 6.7393,-8.25944 1.35123,-3.54699 2.02685,-7.68516 2.02685,-12.41449 0,-2.90516 -0.21958,-5.94544 -0.65873,-9.12085 -0.40537,-3.20919 -1.03031,-6.46905 -1.87484,-9.77958 l -12.26247,3.29364 c 0.94586,3.64834 1.60459,6.95887 1.97618,9.9316 0.40537,2.97272 0.60806,5.38806 0.60806,7.24601 0,3.20919 -0.77696,5.42184 -2.33089,6.63795 -1.52014,1.18233 -3.91858,1.7735 -7.19533,1.7735 h -5.52319 v 13.6306 z"
         id="path1484"
         sodipodi:nodetypes="sccsccccscsccs" />
      <path
         d="m 283.90596,126.78215 q -4.81378,0 -8.36078,2.33089 -3.54699,2.28021 -5.87788,5.97922 -2.33088,3.69901 -3.49632,7.90474 -1.11477,4.20572 -1.11477,8.00608 0,9.22219 5.26982,13.42791 5.26982,4.20573 15.4041,4.20573 h 5.37117 q -1.26679,3.64834 -4.9658,6.58728 -3.69901,2.93894 -9.17152,5.01647 -5.42184,2.12819 -12.05979,3.44565 l 4.6111,12.46516 q 9.98226,-1.92551 16.87357,-5.62452 6.89131,-3.64834 11.09703,-9.12085 4.20573,-5.42184 5.97923,-12.76919 h 5.11781 v -13.6306 h -4.20573 q -0.30403,-5.6752 -1.7735,-10.74234 -1.41879,-5.11781 -4.00304,-9.01951 -2.53357,-3.95236 -6.1819,-6.1819 -3.64834,-2.28022 -8.5128,-2.28022 z m 1.67216,28.22397 q -3.95237,0 -6.23258,-0.81075 -2.28022,-0.86141 -2.28022,-3.69901 0,-1.87484 0.60806,-4.25639 0.60806,-2.43223 2.07753,-4.20573 1.52014,-1.82417 4.05371,-1.82417 2.1282,0 3.64834,1.31746 1.57081,1.26678 2.58424,3.44565 1.0641,2.1282 1.67216,4.76311 0.60805,2.63491 0.81074,5.26983 z"
         id="path1486" />
      <path
         d="m 211.19252,168.63672 c 2.90516,0 5.59074,-0.60806 8.05675,-1.82417 2.46601,-1.24989 4.57732,-2.88827 6.33393,-4.91513 1.38501,1.95929 3.14162,3.58078 5.26982,4.86446 2.1282,1.24989 4.74622,1.87484 7.85407,1.87484 4.45908,-0.0338 7.97229,-1.13168 10.53964,-3.29364 2.56735,-2.19576 4.40842,-5.10092 5.52319,-8.71548 1.11477,-3.64834 1.67215,-7.63449 1.67215,-11.95845 0,-3.0065 -0.21958,-6.013 -0.65873,-9.0195 -0.43915,-3.04029 -1.06409,-6.06368 -1.87484,-9.07018 l -12.26247,3.24297 c 0.64183,2.56735 1.24989,5.33738 1.82417,8.3101 0.57427,2.93894 0.86141,5.55696 0.86141,7.85407 0,1.62149 -0.1858,3.12474 -0.55739,4.50975 -0.37159,1.38502 -0.97964,2.4829 -1.82417,3.29364 -0.84452,0.81075 -1.97618,1.21612 -3.39498,1.21612 -1.52014,0 -2.77003,-0.37159 -3.74968,-1.11478 -0.94587,-0.77696 -1.65527,-1.80728 -2.1282,-3.09095 -0.47293,-1.28367 -0.76007,-2.6518 -0.86141,-4.10438 l -1.0641,-12.87053 -11.85711,1.46947 c 0.10135,1.28367 0.20269,2.60113 0.30403,3.95236 0.10135,1.35124 0.16891,2.58425 0.20269,3.69902 0.0676,1.08099 0.10134,1.87484 0.10134,2.38155 0,3.10785 -0.62495,5.50629 -1.87484,7.19534 -1.24989,1.65527 -3.3612,2.4829 -6.33393,2.4829 -1.62148,0 -2.98961,-0.3547 -4.10438,-1.0641 -1.08099,-0.74318 -1.92551,-1.73972 -2.53357,-2.98962 -0.57427,-1.28367 -0.91208,-2.70247 -1.01342,-4.25639 l -1.0641,-12.87053 -11.85711,1.46947 c 0.10135,1.28367 0.1858,2.60113 0.25336,3.95236 0.10134,1.35124 0.18579,2.56735 0.25336,3.64834 0.0676,1.08099 0.10134,1.89174 0.10134,2.43223 0,3.64834 -0.91209,6.18191 -2.73626,7.60071 -1.82417,1.38502 -4.64487,2.07753 -8.46212,2.07753 h -3.64834 v 13.6306 h 3.547 c 4.05371,0 7.43181,-0.59117 10.13428,-1.7735 2.70247,-1.18233 4.96579,-2.80382 6.78996,-4.86445 1.4188,2.02685 3.25986,3.64834 5.52318,4.86445 2.29711,1.18233 5.20227,1.7735 8.71548,1.7735 z"
         id="path1488"
         sodipodi:nodetypes="sccccccsccccsssscscccscscsccccccsscsccssccs" />
      <path
         d="m 155.85936,133.47078 c 0.13512,1.55392 0.25335,3.34431 0.3547,5.37116 0.10134,1.99307 0.15201,3.81724 0.15201,5.47251 0,2.70247 -0.92897,4.84756 -2.78692,6.43527 -1.85795,1.55392 -4.54354,2.6518 -8.05675,3.29364 -3.51322,0.64184 -7.76962,0.96276 -12.76919,0.96276 h -8.46212 c -3.91859,0 -7.56693,-0.20269 -10.94502,-0.60806 -3.34431,-0.40537 -6.28326,-1.09788 -8.81683,-2.07753 -2.49979,-1.01343 -4.45908,-2.38155 -5.877877,-4.10438 -1.385018,-1.75661 -2.077527,-3.98615 -2.077527,-6.68862 0,-1.85795 0.270247,-3.78347 0.810742,-5.77654 0.540495,-2.02685 1.09788,-3.81724 1.672156,-5.37117 l -11.350391,-4.30707 c -0.979647,2.39845 -1.807279,4.98269 -2.482898,7.75273 -0.641837,2.73625 -0.962756,5.55696 -0.962756,8.46212 0,4.96579 0.962756,9.13774 2.888269,12.51583 1.925513,3.37809 4.661768,6.08057 8.208765,8.10742 3.546998,2.02686 7.769617,3.49633 12.667847,4.40841 4.89823,0.87831 10.32007,1.31746 16.26552,1.31746 h 8.46212 c 4.79689,0 8.95194,-0.27025 12.46516,-0.81074 3.51321,-0.57428 6.57039,-1.46948 9.17152,-2.68559 2.60113,-1.21611 4.91513,-2.78693 6.94198,-4.71244 1.65527,2.63491 3.74968,4.66177 6.28325,6.08057 2.56735,1.4188 5.77654,2.1282 9.62756,2.1282 h 1.11478 v -13.6306 h -1.11478 c -2.87137,0 -4.9489,-0.81074 -6.23258,-2.43223 -1.28367,-1.65527 -2.00996,-3.83414 -2.17887,-6.53661 l -1.06409,-14.03597 z"
         id="path1490"
         sodipodi:nodetypes="ccscssscccsccccssscsscsccsccscccc" />
    </g>
    <rect
       style="fill:#333333;fill-opacity:1;stroke-width:0.496941;stroke-miterlimit:6.8;paint-order:markers fill stroke"
       id="rect1542"
       width="40.650986"
       height="13.414887"
       x="69.532822"
       y="51.652668"
       ry="6.7074437" />
    <rect
       style="fill:#333333;fill-opacity:1;stroke-width:0.496941;stroke-miterlimit:6.8;paint-order:markers fill stroke"
       id="rect1542-6"
       width="40.650986"
       height="13.414887"
       x="174.59601"
       y="-55.67197"
       ry="6.7074437"
       transform="scale(1,-1)" />
    <rect
       style="fill:#333333;fill-opacity:1;stroke-width:0.285472;stroke-miterlimit:6.8;paint-order:markers fill stroke"
       id="rect1542-6-2"
       width="13.414887"
       height="13.414887"
       x="188.21405"
       y="27.539471"
       ry="6.7074437" />
    <rect
       style="fill:#333333;fill-opacity:1;stroke-width:0.309672;stroke-miterlimit:6.8;paint-order:markers fill stroke"
       id="rect1542-6-2-9"
       width="14.552083"
       height="14.552083"
       x="290.11835"
       y="41.688484"
       ry="7.2760415" />
    <rect
       style="fill:#24a5f5;fill-opacity:1;stroke-width:0.511299;stroke-miterlimit:6.8;paint-order:markers fill stroke"
       id="rect1542-6-2-1"
       width="24.026922"
       height="24.026922"
       x="0.00012322572"
       y="81.99913"
       ry="12.013461" />
  </g>
</svg>
